<svg width="458" height="42" viewBox="0 0 458 42" fill="none" xmlns="http://www.w3.org/2000/svg">
<path d="M1.55859 9.15527H4.75781C4.0332 7.69238 3.0625 6.13379 1.8457 4.47949L5.53711 2.18262C6.38477 3.19434 7.5332 4.78027 8.98242 6.94043L5.29102 9.15527H9.88477V1.11621H15.0938V9.15527H19.4004L15.9961 6.94043C17.3633 5.27246 18.5117 3.64551 19.4414 2.05957L23.2969 4.35645C22.3809 5.91504 21.2461 7.51465 19.8926 9.15527H22.2715V13.3389H15.0938V16.21L16.4883 14.3232C18.1973 15.2393 19.8174 16.1416 21.3486 17.0303C23.5908 12.874 25.5254 7.50098 27.1523 0.911133L32.7715 1.44434C32.2246 3.56348 31.6436 5.58691 31.0283 7.51465H41.3027V12.5186H39.6416C39.0537 19.7646 37.5156 25.7188 35.0273 30.3809C36.7773 32.418 38.9238 34.1748 41.4668 35.6514C40.4824 36.7725 39.293 38.5908 37.8984 41.1064C35.5059 39.5068 33.4346 37.5654 31.6846 35.2822C29.4287 37.9346 26.8105 40.0811 23.8301 41.7217C22.7227 40.1494 21.499 38.6729 20.1592 37.292L18.7031 39.7119C17.0625 38.7686 15.2715 37.8115 13.3301 36.8408C10.3359 38.8369 6.75391 40.2588 2.58398 41.1064C2.0918 39.6025 1.36719 37.9209 0.410156 36.0615C3.26758 35.7607 5.7832 35.1865 7.95703 34.3389C6.07031 33.5049 4.07422 32.6572 1.96875 31.7959C2.89844 30.4424 3.73242 29.0889 4.4707 27.7354H1.10742V23.5518H6.50098C6.95215 22.4717 7.3418 21.3916 7.66992 20.3115L9.88477 20.5166V16.5791C7.86133 18.7119 5.31836 20.6943 2.25586 22.5264C1.68164 20.6943 1.03906 19.0537 0.328125 17.6045C3.04883 16.5518 5.50293 15.1299 7.69043 13.3389H1.55859V9.15527ZM28.834 13.6875C29.3809 18.2402 30.3379 22.0479 31.7051 25.1104C33.332 21.5283 34.3027 17.3311 34.6172 12.5186H29.2852C29.1484 12.915 28.998 13.3047 28.834 13.6875ZM15.0938 21.46H13.0225C12.708 22.1299 12.3594 22.8271 11.9766 23.5518H21.5332V27.3662C20.4668 29.5947 19.1338 31.5703 17.5342 33.293L21.6152 34.9131L20.7949 36.2461C23.8164 34.6738 26.3936 32.6367 28.5264 30.1348C27.1865 27.3867 26.1611 24.3105 25.4502 20.9062C24.9717 21.7676 24.4863 22.5947 23.9941 23.3877C23.3652 22.2939 22.6338 21.166 21.7998 20.0039L20.5898 21.8291C18.8945 20.6807 17.0625 19.5186 15.0938 18.3428V21.46ZM8.53125 29.8682L12.7969 31.4678C14.0273 30.4014 15.0391 29.1572 15.832 27.7354H9.74121L8.53125 29.8682ZM51.532 41.5576V23.2646C51.0809 23.4561 50.616 23.6475 50.1375 23.8389C49.1258 22.3896 48.1004 21.1182 47.0613 20.0244C51.2449 18.3838 53.8221 16.6064 54.7928 14.6924H47.4305V10.6729H49.9734C49.1531 9.37402 48.3465 8.23926 47.5535 7.26855C49.0301 5.84668 50.5203 3.72754 52.0242 0.911133H57.3152C56.8641 1.92285 56.3924 2.87988 55.9002 3.78223H67.3641V7.84277H61.6424C61.574 8.84082 61.4646 9.78418 61.3143 10.6729H68.5945V14.6924H62.2166L68.0613 18.5889L65.3953 21.624H82.95V41.5576H77.4539V39.7529H57.0281V41.5576H51.532ZM50.8758 10.6729H56.0438C56.1805 9.8252 56.2762 8.88184 56.3309 7.84277H53.3572C52.5643 8.89551 51.7371 9.83887 50.8758 10.6729ZM54.6287 21.624H64.0418C62.3055 19.9971 60.699 18.5547 59.2225 17.2969C58.1971 18.9102 56.6658 20.3525 54.6287 21.624ZM77.4539 25.9307H57.0281V28.8018H77.4539V25.9307ZM57.0281 35.4463H77.4539V32.7803H57.0281V35.4463ZM69.2508 3.94629H85.616V19.2861H69.2508V3.94629ZM80.5301 14.9385V8.29395H74.3367V14.9385H80.5301ZM103.064 1.23926L108.765 3.12598C107.48 6.29785 106.086 9.29199 104.582 12.1084V41.2295H98.6754V21.624C97.3492 23.4424 95.9684 25.165 94.5328 26.792C94.068 24.2217 93.5484 21.8291 92.9742 19.6143C97.2398 14.2275 100.603 8.10254 103.064 1.23926ZM128.207 6.81738L133.334 10.7549C129.259 15.2939 124.597 19.5527 119.347 23.5312V31.9189C119.347 33.9697 120.236 34.9951 122.013 34.9951H123.777C125.13 34.9951 126.019 34.5439 126.443 33.6416C126.88 32.7393 127.236 30.0322 127.509 25.5205C129.752 26.2314 131.83 26.833 133.744 27.3252C133.252 31.2764 132.821 34.0859 132.452 35.7539C132.096 37.4219 131.221 38.6865 129.827 39.5479C128.446 40.4229 126.539 40.8604 124.105 40.8604H120.578C115.656 40.8604 113.195 38.4131 113.195 33.5186V27.8994C111.609 28.9521 109.982 29.9775 108.314 30.9756C107.439 29.5264 106.236 27.7354 104.705 25.6025C107.671 24.0166 110.502 22.2803 113.195 20.3936V1.40332H119.347V15.6562C122.533 12.9492 125.486 10.0029 128.207 6.81738ZM140.897 34.0928H158.164V27.1201H146.024V21.583H158.164V14.7744H148.239C146.448 18.3018 144.438 21.5967 142.209 24.6592C141.362 22.3896 140.432 20.0381 139.42 17.6045C142.237 13.8584 144.629 8.86816 146.598 2.63379L152.709 4.15137C152.108 5.8877 151.465 7.58301 150.782 9.2373H158.164V1.11621H164.317V9.2373H177.934V14.7744H164.317V21.583H176.334V27.1201H164.317V34.0928H179.411V39.7939H140.897V34.0928ZM197.72 41.5576H192.552V28.9248C190.31 29.335 188.177 29.7588 186.154 30.1963L185.415 24.249C187.616 24.0439 189.995 23.7568 192.552 23.3877V15.1846H189.886C189.544 17.1123 189.148 18.9717 188.696 20.7627C187.411 19.9424 186.304 19.3271 185.374 18.917C186.359 14.7061 187.001 9.93457 187.302 4.60254L191.075 4.97168C190.966 6.65332 190.822 8.29395 190.645 9.89355H192.552V1.28027H197.72V9.89355H200.714V11.5342C202.601 7.9248 204.077 4.39746 205.144 0.952148C207.113 1.30762 208.945 1.66309 210.64 2.01855C209.915 3.94629 209.197 5.7373 208.487 7.3916H224.667C224.626 12.1357 224.524 17.2627 224.36 22.7725L223.99 33.375C223.908 34.9199 223.608 36.2393 223.088 37.333C222.569 38.4404 221.762 39.2402 220.668 39.7324C219.574 40.2246 216.696 40.3955 212.034 40.2451C211.624 38.0029 211.153 36.1162 210.619 34.585C208.705 36.9775 206.415 39.1377 203.749 41.0654C202.027 39.2334 200.564 37.7842 199.361 36.7178C208.001 31.1533 212.827 23.1826 213.839 12.8057H211.809C210.824 19.8467 207.905 25.4658 203.052 29.6631C202.245 28.8838 201.5 28.1865 200.817 27.5713L197.72 28.043V41.5576ZM219.581 12.8057H217.777C217.64 21.3643 215.322 28.542 210.824 34.3389C212.533 34.4756 214.126 34.5439 215.603 34.5439C217.476 34.5439 218.556 33.6211 218.843 31.7754C219.13 29.916 219.376 23.5928 219.581 12.8057ZM202.109 18.6299C201.001 17.0713 200.106 15.9229 199.422 15.1846H197.72V22.5879C198.909 22.3965 200.14 22.1846 201.411 21.9521C201.37 22.54 201.336 23.1758 201.309 23.8594C204.631 20.7559 206.825 17.0713 207.892 12.8057H205.882C204.624 15.1436 203.366 17.085 202.109 18.6299ZM238.301 38.9326H233.379V22.8955H241.828V19.7373H231.779V15.0615H241.828V11.4111H237.419C237.077 12.6143 236.715 13.7354 236.332 14.7744C235.156 14.2549 233.734 13.6943 232.066 13.0928C233.188 9.81152 234.117 6.28418 234.855 2.51074L239.326 3.41309L238.629 6.73535H241.828V1.03418H247.242V6.73535H255.445V11.4111H247.242V15.0615H256.635V19.7373H247.242V22.8955H255.691V34.0107C255.691 35.542 255.37 36.7383 254.728 37.5996C254.099 38.4746 253.087 38.9326 251.692 38.9736C250.312 39.0283 249.307 39.0557 248.678 39.0557C248.404 37.5791 248.021 35.8701 247.529 33.9287C248.24 34.0107 248.91 34.0518 249.539 34.0518C250.359 34.0518 250.77 33.6006 250.77 32.6982V27.6123H247.242V41.5986H241.828V27.6123H238.301V38.9326ZM265.207 1.0752H270.457V34.9541C270.457 37.0049 269.985 38.5498 269.042 39.5889C268.099 40.6279 266.766 41.1748 265.043 41.2295C263.32 41.2842 261.338 41.3115 259.096 41.3115C258.877 39.6982 258.521 37.7705 258.029 35.5283C260.189 35.665 261.871 35.7334 263.074 35.7334C264.496 35.7334 265.207 34.8857 265.207 33.1904V1.0752ZM257.865 4.27441H262.869V31.7139H257.865V4.27441ZM289.464 14.0771H301.973V10.7959H296.231C295.766 11.9443 295.302 13.0107 294.837 13.9951C293.497 13.3389 291.966 12.6143 290.243 11.8213C291.692 9.00488 292.991 5.65527 294.139 1.77246L298.938 3.29004C298.61 4.30176 298.282 5.27246 297.954 6.20215H301.973V1.11621H307.429V6.20215H316.329V10.7959H307.429V14.0771H317.846V18.6709H289.464V14.0771ZM283.927 1.69043C285.977 4.37012 287.823 6.88574 289.464 9.2373L284.665 12.4775C283.024 9.63379 281.315 6.94043 279.538 4.39746L283.927 1.69043ZM318.421 35.3232L316.78 40.6143C306.157 40.6963 298.897 40.6416 295.001 40.4502C291.104 40.2588 287.878 39.001 285.321 36.6768C283.462 38.5361 281.876 40.1631 280.563 41.5576L278.102 35.4463L282.327 31.8369V21.4189H278.513V16.21H287.7V32.124C289.833 34.4209 293.114 35.5693 297.544 35.5693C306.581 35.5693 313.54 35.4873 318.421 35.3232ZM292.622 20.6396H315.386V33.0264H292.622V20.6396ZM310.013 25.1514H297.995V28.5146H310.013V25.1514ZM342.267 10.5498L346.164 9.11426H338.945V4.68457H348.502C348.119 3.75488 347.722 2.77051 347.312 1.73145L353.218 1.03418C353.629 2.34668 353.998 3.56348 354.326 4.68457H364.005V9.11426H357.648L361.093 10.0986C360.246 11.4658 359.48 12.6826 358.796 13.749H364.416V21.7471H359.658V18.1787H343.293V21.7471H338.494V13.749H344.236C343.498 12.4912 342.841 11.4248 342.267 10.5498ZM348.912 18.999H353.998V23.2236H363.595V33.8877C363.595 37.0322 361.955 38.6318 358.673 38.6865C358.127 38.7139 356.882 38.7002 354.941 38.6455C354.722 37.3057 354.408 35.8154 353.998 34.1748V41.5576H348.912V27.7354H344.482V38.2354H339.478V23.2236H348.912V18.999ZM329.429 13.585C330.386 13.5576 331.466 13.5166 332.67 13.4619C333.462 11.9854 334.283 10.4131 335.13 8.74512L339.642 10.8369C336.853 15.6768 334.16 20.0381 331.562 23.9209C333.722 23.7021 335.814 23.4424 337.837 23.1416C337.646 24.5908 337.523 26.2451 337.468 28.1045C332.328 28.624 328.472 29.2119 325.902 29.8682L324.63 25.2334C326.107 23.8389 327.843 21.5146 329.839 18.2607C327.98 18.4248 326.476 18.5889 325.328 18.7529L323.892 14.0771C325.861 11.4248 328.021 7.03613 330.373 0.911133L335.171 2.6748C332.875 7.37793 330.961 11.0146 329.429 13.585ZM324.015 33.3955C329.046 32.6846 333.654 31.9053 337.837 31.0576L337.427 36.5537C333.271 37.374 329.101 38.1943 324.918 39.0146L324.015 33.3955ZM356.5 34.2568C357.894 34.3115 358.591 33.7373 358.591 32.5342V27.7354H353.998V34.0518C354.244 34.0518 355.078 34.1201 356.5 34.2568ZM349.937 13.749H353.136C353.82 12.3818 354.572 10.8369 355.392 9.11426H347.271C348.119 10.4268 349.007 11.9717 349.937 13.749ZM381.864 14.0771H394.373V10.7959H388.631C388.166 11.9443 387.702 13.0107 387.237 13.9951C385.897 13.3389 384.366 12.6143 382.643 11.8213C384.092 9.00488 385.391 5.65527 386.539 1.77246L391.338 3.29004C391.01 4.30176 390.682 5.27246 390.354 6.20215H394.373V1.11621H399.829V6.20215H408.729V10.7959H399.829V14.0771H410.246V18.6709H381.864V14.0771ZM376.327 1.69043C378.377 4.37012 380.223 6.88574 381.864 9.2373L377.065 12.4775C375.424 9.63379 373.715 6.94043 371.938 4.39746L376.327 1.69043ZM410.821 35.3232L409.18 40.6143C398.557 40.6963 391.297 40.6416 387.401 40.4502C383.504 40.2588 380.278 39.001 377.721 36.6768C375.862 38.5361 374.276 40.1631 372.963 41.5576L370.502 35.4463L374.727 31.8369V21.4189H370.913V16.21H380.1V32.124C382.233 34.4209 385.514 35.5693 389.944 35.5693C398.981 35.5693 405.94 35.4873 410.821 35.3232ZM385.022 20.6396H407.786V33.0264H385.022V20.6396ZM402.413 25.1514H390.395V28.5146H402.413V25.1514ZM416.743 12.4775H430.853V9.36035H420.066V4.52051H430.853V0.870117H436.431V4.52051H446.275V9.01172C448.161 7.15234 449.952 5.13574 451.648 2.96191L455.79 6.12012C453.849 8.43066 451.819 10.5498 449.699 12.4775H457.267V17.3174H443.588C441.92 18.4658 440.197 19.5049 438.42 20.4346H452.755V41.5576H447.177V39.835H428.023V41.5576H422.445V26.751C421.036 27.1885 419.587 27.6123 418.097 28.0225C417.714 26.5459 417.154 24.8369 416.415 22.8955C423.935 21.5283 430.108 19.6689 434.934 17.3174H416.743V12.4775ZM445.905 9.36035H436.431V12.4775H442.378C443.595 11.4932 444.771 10.4541 445.905 9.36035ZM447.177 25.0283H428.023V27.8994H447.177V25.0283ZM428.023 35.2412H447.177V32.3701H428.023V35.2412Z" fill="#103566"/>
</svg>
