<svg width="52" height="52" viewBox="0 0 52 52" fill="none" xmlns="http://www.w3.org/2000/svg">
<path d="M25 2.57735C25.6188 2.22009 26.3812 2.22008 27 2.57735L45.7846 13.4226C46.4034 13.7799 46.7846 14.4402 46.7846 15.1547V36.8453C46.7846 37.5598 46.4034 38.2201 45.7846 38.5774L27 49.4226C26.3812 49.7799 25.6188 49.7799 25 49.4226L6.21539 38.5774C5.59659 38.2201 5.21539 37.5598 5.21539 36.8453V15.1547C5.21539 14.4402 5.59659 13.7799 6.21539 13.4226L25 2.57735Z" fill="url(#paint0_linear_654_241)"/>
<path d="M26 2.5V25M26 25L6 38M26 25L46 37" stroke="white" stroke-opacity="0.4" stroke-linejoin="round" stroke-dasharray="4 2"/>
<g filter="url(#filter0_bd_654_241)">
<path d="M26 11L38.1244 18V32L26 39L13.8756 32V18L26 11Z" fill="url(#paint1_linear_654_241)" shape-rendering="crispEdges"/>
<path d="M14.2756 18.2309L26 11.4619L37.7244 18.2309V31.7691L26 38.5381L14.2756 31.7691V18.2309Z" stroke="url(#paint2_linear_654_241)" stroke-width="0.8" shape-rendering="crispEdges"/>
</g>
<defs>
<filter id="filter0_bd_654_241" x="9.87567" y="9" width="32.2487" height="38" filterUnits="userSpaceOnUse" color-interpolation-filters="sRGB">
<feFlood flood-opacity="0" result="BackgroundImageFix"/>
<feGaussianBlur in="BackgroundImageFix" stdDeviation="1"/>
<feComposite in2="SourceAlpha" operator="in" result="effect1_backgroundBlur_654_241"/>
<feColorMatrix in="SourceAlpha" type="matrix" values="0 0 0 0 0 0 0 0 0 0 0 0 0 0 0 0 0 0 127 0" result="hardAlpha"/>
<feOffset dy="4"/>
<feGaussianBlur stdDeviation="2"/>
<feComposite in2="hardAlpha" operator="out"/>
<feColorMatrix type="matrix" values="0 0 0 0 0.158674 0 0 0 0 0.238532 0 0 0 0 0.521667 0 0 0 0.1 0"/>
<feBlend mode="normal" in2="effect1_backgroundBlur_654_241" result="effect2_dropShadow_654_241"/>
<feBlend mode="normal" in="SourceGraphic" in2="effect2_dropShadow_654_241" result="shape"/>
</filter>
<linearGradient id="paint0_linear_654_241" x1="36" y1="22" x2="19" y2="42.5" gradientUnits="userSpaceOnUse">
<stop stop-color="#2871FF"/>
<stop offset="1" stop-color="#62A1FF"/>
</linearGradient>
<linearGradient id="paint1_linear_654_241" x1="24.5" y1="10.5" x2="31.5" y2="39" gradientUnits="userSpaceOnUse">
<stop stop-color="#D9E5FF" stop-opacity="0.36"/>
<stop offset="1" stop-color="#D9E5FF" stop-opacity="0.01"/>
</linearGradient>
<linearGradient id="paint2_linear_654_241" x1="13.5" y1="7" x2="33.5" y2="35" gradientUnits="userSpaceOnUse">
<stop stop-color="white" stop-opacity="0.12"/>
<stop offset="1" stop-color="#1450AA" stop-opacity="0.17"/>
</linearGradient>
</defs>
</svg>
