<svg xmlns="http://www.w3.org/2000/svg" width="130" height="22" viewBox="0 0 130 22" fill="none">
  <path
    d="M11.7301 1.54679H128.968L119.837 18.4795C118.972 20.0836 116.793 21.384 114.971 21.384H4.33255C2.51001 21.384 1.73382 20.0836 2.59888 18.4795L11.7301 1.54679Z"
    fill="url(#paint0_linear_1470_9422)" fill-opacity="0.4" />
  <path
    d="M11.7301 1.54679H128.968L119.837 18.4795C118.972 20.0836 116.793 21.384 114.971 21.384H4.33255C2.51001 21.384 1.73382 20.0836 2.59888 18.4795L11.7301 1.54679Z"
    fill="url(#paint1_linear_1470_9422)" fill-opacity="0.6" />
  <path
    d="M11.7301 1.54679H128.968L119.837 18.4795C118.972 20.0836 116.793 21.384 114.971 21.384H4.33255C2.51001 21.384 1.73382 20.0836 2.59888 18.4795L11.7301 1.54679Z"
    fill="url(#paint2_linear_1470_9422)" />
  <path
    d="M11.7301 1.54679H128.968L119.837 18.4795C118.972 20.0836 116.793 21.384 114.971 21.384H4.33255C2.51001 21.384 1.73382 20.0836 2.59888 18.4795L11.7301 1.54679Z"
    fill="url(#paint3_radial_1470_9422)" />
  <path
    d="M11.7301 1.54679H128.968L119.837 18.4795C118.972 20.0836 116.793 21.384 114.971 21.384H4.33255C2.51001 21.384 1.73382 20.0836 2.59888 18.4795L11.7301 1.54679Z"
    stroke="url(#paint4_linear_1470_9422)" stroke-width="1.4" />
  <path fill-rule="evenodd" clip-rule="evenodd" d="M105.613 22.0001H10.5371V20.6001H105.613V22.0001Z"
    fill="url(#paint5_linear_1470_9422)" />
  <defs>
    <linearGradient id="paint0_linear_1470_9422" x1="59.3193" y1="0.930664" x2="59.3193" y2="22.0002"
      gradientUnits="userSpaceOnUse">
      <stop stop-opacity="0" />
      <stop offset="1" />
    </linearGradient>
    <linearGradient id="paint1_linear_1470_9422" x1="78.9082" y1="20.989" x2="78.9082" y2="0.930664"
      gradientUnits="userSpaceOnUse">
      <stop stop-color="#0085FF" stop-opacity="0.6" />
      <stop offset="1" stop-color="#00A3FF" stop-opacity="0" />
    </linearGradient>
    <linearGradient id="paint2_linear_1470_9422" x1="106.863" y1="0.930664" x2="106.28" y2="24.8847"
      gradientUnits="userSpaceOnUse">
      <stop stop-color="#0380FE" stop-opacity="0" />
      <stop offset="0.495136" stop-color="#0380FE" stop-opacity="0.3" />
      <stop offset="1" stop-color="#0380FE" />
    </linearGradient>
    <radialGradient id="paint3_radial_1470_9422" cx="0" cy="0" r="1" gradientUnits="userSpaceOnUse"
      gradientTransform="translate(60.7542 20.7121) scale(44.6493 6.56856)">
      <stop stop-color="#4DD8FF" stop-opacity="0.7" />
      <stop offset="0.9" stop-color="#4DD8FF" stop-opacity="0" />
    </radialGradient>
    <linearGradient id="paint4_linear_1470_9422" x1="63.8519" y1="3.22029" x2="63.8519" y2="21.6103"
      gradientUnits="userSpaceOnUse">
      <stop stop-color="#48B1FF" stop-opacity="0" />
      <stop offset="1" stop-color="#48B1FF" stop-opacity="0.8" />
    </linearGradient>
    <linearGradient id="paint5_linear_1470_9422" x1="10.5371" y1="22.5001" x2="105.613" y2="22.5001"
      gradientUnits="userSpaceOnUse">
      <stop stop-color="#8FCBFF" stop-opacity="0" />
      <stop offset="0.515" stop-color="#E0F0FF" />
      <stop offset="1" stop-color="#8FCBFF" stop-opacity="0" />
    </linearGradient>
  </defs>
</svg>